# xmcd
# 
# Track frame offsets:
#     150
#     32518
#     49032
#     65963
#     81839
#     104259
#     122569
#     142675
#     156330
#     172408
#     200822
#     221771
#     244479
#     266211
#     285447
#     304539
#     326444
# 
# Disc length: 4627
# 
# Revision: 1
# Processed by: cddbd v1.5.2PL0 Copyright (c) Steve Scherf et al.
# Submitted via: fre:ac v1.0.31
# 
DISCID=04121111
DTITLE=Air - twentyears [CD1]
DYEAR=0
DGENRE=
TTITLE0=La Femme D'argent
TTITLE1=Cherry Blossom Girl
TTITLE2=Kelly Watch The Stars
TTITLE3=Playground Love
TTITLE4=Sexy Boy
TTITLE5=Venus
TTITLE6=All I Need
TTITLE7=Alpha Beta Gaga [Single Edit]
TTITLE8=Moon Fever
TTITLE9=Don't Be Light
TTITLE10=How Does It Make You Feel
TTITLE11=Once Upon A Time
TTITLE12=Alone In Kyoto
TTITLE13=Talisman
TTITLE14=Run
TTITLE15=Le Soleil Est Près De Moi
TTITLE16=Land Me
EXTD=
EXTT0=
EXTT1=
EXTT2=
EXTT3=
EXTT4=
EXTT5=
EXTT6=
EXTT7=
EXTT8=
EXTT9=
EXTT10=
EXTT11=
EXTT12=
EXTT13=
EXTT14=
EXTT15=
EXTT16=
PLAYORDER=
